<svg viewBox="0 0 120 120" xmlns="http://www.w3.org/2000/svg">
  <ellipse cx="60" cy="106" rx="32" ry="6" fill="#000000" opacity="0.12"/>
  <rect x="8" y="8" width="104" height="104" rx="30" fill="#FFB300"/>
  <ellipse cx="35" cy="28" rx="30" ry="18" fill="#FFFFFF" opacity="0.10" transform="rotate(-25 35 28)"/>
  <path d="M8 80 h104 v2 a30 30 0 0 1-30 30 h-44 a30 30 0 0 1-30-30 z" fill="#000000" opacity="0.08"/>

  <!-- handles -->
  <path d="M40 40 C24 40 24 58 40 56" fill="none" stroke="#FFFFFF" stroke-width="5" stroke-linecap="round"/>
  <path d="M80 40 C96 40 96 58 80 56" fill="none" stroke="#FFFFFF" stroke-width="5" stroke-linecap="round"/>

  <!-- cup -->
  <path d="M38 36 H82 V40 a22 22 0 0 1 -44 0 Z" fill="#FFFFFF"/>

  <!-- stem + base -->
  <rect x="56" y="60" width="8" height="10" fill="#FFFFFF"/>
  <rect x="48" y="70" width="24" height="6" rx="3" fill="#FFFFFF"/>
  <rect x="44" y="78" width="32" height="7" rx="3.5" fill="#FFFFFF"/>

  <!-- star accent -->
  <path d="M60 44 l2.4 4.9 5.4 0.8 -3.9 3.8 0.9 5.4 -4.8 -2.5 -4.8 2.5 0.9 -5.4 -3.9 -3.8 5.4 -0.8 Z" fill="#FFCA28"/>
</svg>
