<svg viewBox="0 0 120 120" xmlns="http://www.w3.org/2000/svg">
  <ellipse cx="60" cy="106" rx="32" ry="6" fill="#000000" opacity="0.12"/>
  <rect x="8" y="8" width="104" height="104" rx="30" fill="#00ACC1"/>
  <ellipse cx="35" cy="28" rx="30" ry="18" fill="#FFFFFF" opacity="0.10" transform="rotate(-25 35 28)"/>
  <path d="M8 80 h104 v2 a30 30 0 0 1-30 30 h-44 a30 30 0 0 1-30-30 z" fill="#000000" opacity="0.08"/>

  <!-- back bubble -->
  <rect x="52" y="28" width="36" height="24" rx="9" fill="#B2EBF2"/>
  <path d="M78 50 l0 9 l-11 -9 z" fill="#B2EBF2"/>

  <!-- front bubble -->
  <rect x="30" y="40" width="44" height="30" rx="10" fill="#FFFFFF"/>
  <path d="M42 68 l0 11 l13 -11 z" fill="#FFFFFF"/>

  <!-- dots -->
  <circle cx="44" cy="55" r="3.5" fill="#00ACC1"/>
  <circle cx="52" cy="55" r="3.5" fill="#00ACC1"/>
  <circle cx="60" cy="55" r="3.5" fill="#00ACC1"/>
</svg>
