<svg viewBox="0 0 120 120" xmlns="http://www.w3.org/2000/svg">
  <ellipse cx="60" cy="106" rx="32" ry="6" fill="#000000" opacity="0.12"/>
  <rect x="8" y="8" width="104" height="104" rx="30" fill="#00BCD4"/>
  <ellipse cx="35" cy="28" rx="30" ry="18" fill="#FFFFFF" opacity="0.10" transform="rotate(-25 35 28)"/>
  <path d="M8 80 h104 v2 a30 30 0 0 1-30 30 h-44 a30 30 0 0 1-30-30 z" fill="#000000" opacity="0.08"/>

  <path d="M30 42 a12 12 0 0 1 12-12 h36 a12 12 0 0 1 12 12 v22 a12 12 0 0 1-12 12 H54 l-11 10 v-10 h-1 a12 12 0 0 1-12-12z" fill="#FFFFFF"/>

  <path d="M60,43 L62.64,50.36 L70.46,50.60 L64.28,55.39 L66.47,62.90 L60,58.5 L53.53,62.90 L55.72,55.39 L49.54,50.60 L57.36,50.36 Z" fill="#00838F"/>
</svg>
