<svg viewBox="0 0 120 120" xmlns="http://www.w3.org/2000/svg">
  <ellipse cx="60" cy="106" rx="32" ry="6" fill="#000000" opacity="0.12"/>
  <rect x="8" y="8" width="104" height="104" rx="30" fill="#FF9800"/>
  <ellipse cx="35" cy="28" rx="30" ry="18" fill="#FFFFFF" opacity="0.10" transform="rotate(-25 35 28)"/>
  <path d="M8 80 h104 v2 a30 30 0 0 1-30 30 h-44 a30 30 0 0 1-30-30 z" fill="#000000" opacity="0.08"/>

  <circle cx="60" cy="60" r="28" fill="#FFFFFF"/>
  <path d="M60,60 L60,32 A28,28 0 0,1 84.25,74 Z" fill="#FFE0B2"/>
  <path d="M60,60 L84.25,74 A28,28 0 0,1 35.75,74 Z" fill="#FFB74D"/>
  <path d="M60,60 L35.75,74 A28,28 0 0,1 60,32 Z" fill="#FB8C00"/>
  <circle cx="60" cy="60" r="3" fill="#5D4037" opacity="0.3"/>
</svg>
